<svg width="105" height="44" viewBox="0 0 105 44" fill="none" xmlns="http://www.w3.org/2000/svg">
                        <g clip-path="url(#clip0)">
                        <path d="M35.4133 13.4397H31.8122C31.1248 13.4397 30.4399 13.9579 30.253 14.6195L29.2803 18.0624C29.169 18.0315 29.0519 18.0135 28.9301 18.0135H17.2954C16.9251 18.0135 16.5736 18.1671 16.3309 18.4349C16.0882 18.7026 15.97 19.0676 16.0063 19.436L16.549 24.9362C16.6213 25.6693 17.2549 26.2435 17.9916 26.2435H27.0218C27.7121 26.2435 28.394 25.7214 28.5742 25.0551L29.7054 20.8722L31.382 14.9385C31.4275 14.7771 31.6446 14.6129 31.8122 14.6129H35.4133C35.7372 14.6129 35.9999 14.3504 35.9999 14.0263C35.9999 13.7023 35.7372 13.4397 35.4133 13.4397ZM27.4418 24.7489C27.3988 24.9081 27.1867 25.0703 27.0218 25.0703H17.9915C17.8628 25.0703 17.729 24.9492 17.7164 24.821L17.1738 19.3208C17.1698 19.28 17.1788 19.2461 17.2002 19.2226C17.2215 19.1991 17.2544 19.1867 17.2953 19.1867H28.93C28.9357 19.1867 28.9407 19.1869 28.9451 19.1872C28.9443 19.1916 28.9431 19.1964 28.9417 19.2019L27.4418 24.7489Z" fill="#FE8D00"/>
                        <path d="M19.7035 26.9115C18.6976 26.9115 17.879 27.7299 17.879 28.7359C17.879 29.7419 18.6975 30.5604 19.7035 30.5604C20.7095 30.5604 21.528 29.7419 21.528 28.7359C21.528 27.7299 20.7096 26.9115 19.7035 26.9115ZM19.7035 29.3873C19.3444 29.3873 19.0522 29.0951 19.0522 28.7359C19.0522 28.3768 19.3443 28.0846 19.7035 28.0846C20.0627 28.0846 20.3549 28.3768 20.3549 28.7359C20.3549 29.0951 20.0628 29.3873 19.7035 29.3873Z" fill="#FE8D00"/>
                        <path d="M25.4888 26.9115C24.4828 26.9115 23.6644 27.7299 23.6644 28.7359C23.6644 29.7419 24.4828 30.5604 25.4888 30.5604C26.4948 30.5604 27.3133 29.7419 27.3133 28.7359C27.3133 27.7299 26.4948 26.9115 25.4888 26.9115ZM25.4888 29.3873C25.1297 29.3873 24.8375 29.0951 24.8375 28.7359C24.8375 28.3768 25.1297 28.0846 25.4888 28.0846C25.8479 28.0846 26.1402 28.3768 26.1402 28.7359C26.1402 29.0951 25.8479 29.3873 25.4888 29.3873Z" fill="#FE8D00"/>
                        </g>
                        <path d="M45.2368 27L42.5454 19.2495H42.4946C42.5666 20.4006 42.6025 21.4797 42.6025 22.4868V27H41.2251V17.7197H43.3643L45.9414 25.1021H45.9795L48.6328 17.7197H50.7783V27H49.3184V22.4106C49.3184 21.9494 49.3289 21.3485 49.3501 20.6079C49.3755 19.8674 49.3966 19.4188 49.4136 19.2622H49.3628L46.5762 27H45.2368ZM51.9971 19.9795H53.6221L55.0503 23.9595C55.2661 24.5265 55.41 25.0597 55.4819 25.5591H55.5327C55.5708 25.3263 55.6406 25.0449 55.7422 24.7148C55.8438 24.3805 56.3812 22.8021 57.3545 19.9795H58.9668L55.9644 27.9331C55.4185 29.3931 54.5086 30.123 53.2349 30.123C52.9048 30.123 52.5832 30.0871 52.27 30.0151V28.8345C52.4943 28.8853 52.7503 28.9106 53.0381 28.9106C53.7575 28.9106 54.2632 28.4938 54.5552 27.6602L54.8154 27L51.9971 19.9795ZM67.5171 18.8877C66.6453 18.8877 65.9598 19.1966 65.4604 19.8145C64.9611 20.4323 64.7114 21.285 64.7114 22.3726C64.7114 23.5109 64.9505 24.3721 65.4287 24.9561C65.9111 25.54 66.6073 25.832 67.5171 25.832C67.9106 25.832 68.2915 25.7939 68.6597 25.7178C69.0278 25.6374 69.4108 25.5358 69.8086 25.4131V26.7144C69.0807 26.9894 68.2555 27.127 67.333 27.127C65.9746 27.127 64.9315 26.7165 64.2036 25.8955C63.4757 25.0703 63.1118 23.8918 63.1118 22.3599C63.1118 21.395 63.2874 20.5508 63.6387 19.8271C63.9941 19.1035 64.5062 18.5492 65.1748 18.1641C65.8434 17.779 66.6284 17.5864 67.5298 17.5864C68.4777 17.5864 69.3537 17.7853 70.1577 18.1831L69.6118 19.4463C69.2987 19.2982 68.9665 19.1691 68.6152 19.0591C68.2682 18.9448 67.9022 18.8877 67.5171 18.8877ZM76.042 27L75.7437 26.0225H75.6929C75.3543 26.4499 75.0137 26.7419 74.6709 26.8984C74.3281 27.0508 73.888 27.127 73.3506 27.127C72.6608 27.127 72.1213 26.9408 71.7319 26.5684C71.3468 26.196 71.1543 25.6691 71.1543 24.9878C71.1543 24.2642 71.423 23.7183 71.9604 23.3501C72.4979 22.9819 73.3167 22.7809 74.417 22.7471L75.6294 22.709V22.3345C75.6294 21.8859 75.5236 21.5516 75.312 21.3315C75.1047 21.1073 74.7809 20.9951 74.3408 20.9951C73.9811 20.9951 73.6362 21.048 73.3062 21.1538C72.9761 21.2596 72.6587 21.3844 72.354 21.5283L71.8716 20.4619C72.2524 20.263 72.6693 20.1128 73.1221 20.0112C73.5749 19.9054 74.0023 19.8525 74.4043 19.8525C75.2972 19.8525 75.9701 20.0472 76.4229 20.4365C76.8799 20.8258 77.1084 21.4373 77.1084 22.271V27H76.042ZM73.8203 25.9844C74.362 25.9844 74.7957 25.8341 75.1216 25.5337C75.4517 25.229 75.6167 24.8037 75.6167 24.2578V23.6484L74.7153 23.6865C74.0129 23.7119 73.5008 23.8304 73.1792 24.042C72.8618 24.2493 72.7031 24.5688 72.7031 25.0005C72.7031 25.3136 72.7962 25.557 72.9824 25.7305C73.1686 25.8997 73.4479 25.9844 73.8203 25.9844ZM82.7515 19.8525C83.0519 19.8525 83.2995 19.8737 83.4941 19.916L83.3481 21.3062C83.1366 21.2554 82.9165 21.23 82.688 21.23C82.0913 21.23 81.6068 21.4246 81.2344 21.814C80.8662 22.2033 80.6821 22.709 80.6821 23.3311V27H79.1904V19.9795H80.3584L80.5552 21.2173H80.6313C80.8641 20.7983 81.1667 20.4661 81.5391 20.2207C81.9157 19.9753 82.3198 19.8525 82.7515 19.8525ZM87.417 25.9209C87.7809 25.9209 88.1449 25.8638 88.5088 25.7495V26.873C88.3438 26.945 88.13 27.0042 87.8677 27.0508C87.6095 27.1016 87.3408 27.127 87.0615 27.127C85.6481 27.127 84.9414 26.3822 84.9414 24.8926V21.1094H83.9829V20.4492L85.0112 19.9033L85.519 18.418H86.4395V19.9795H88.439V21.1094H86.4395V24.8672C86.4395 25.2269 86.5283 25.4935 86.7061 25.667C86.888 25.8363 87.125 25.9209 87.417 25.9209Z" fill="#FE8D00"/>
                        <rect x="1" y="1" width="103" height="42" rx="3" stroke="#FE8D00" stroke-width="2"/>
                        <defs>
                        <clipPath id="clip0">
                        <rect width="20" height="20" fill="white" transform="translate(16 12)"/>
                        </clipPath>
                        </defs>
                        </svg>