<svg width="500" height="500" viewBox="0 0 500 500" fill="none" xmlns="http://www.w3.org/2000/svg">
<path d="M500 382.4H0V382.65H500V382.4Z" fill="#EBEBEB"/>
<path d="M435.67 398.49H416.78V398.74H435.67V398.49Z" fill="#EBEBEB"/>
<path d="M322.52 396.75H293.05V397H322.52V396.75Z" fill="#EBEBEB"/>
<path d="M415.78 389.21H368.67V389.46H415.78V389.21Z" fill="#EBEBEB"/>
<path d="M63.43 390.89H52.46V391.14H63.43V390.89Z" fill="#EBEBEB"/>
<path d="M110.89 390.89H72.3301V391.14H110.89V390.89Z" fill="#EBEBEB"/>
<path d="M225.15 395.11H171V395.36H225.15V395.11Z" fill="#EBEBEB"/>
<path d="M237 337.8H43.91C42.3973 337.797 40.9475 337.195 39.8788 336.124C38.8102 335.053 38.21 333.603 38.21 332.09V60.66C38.2231 59.156 38.8292 57.718 39.8964 56.6582C40.9637 55.5985 42.4059 55.0026 43.91 55H237C238.514 55 239.967 55.6016 241.038 56.6724C242.108 57.7433 242.71 59.1956 242.71 60.71V332.09C242.71 333.604 242.108 335.057 241.038 336.128C239.967 337.198 238.514 337.8 237 337.8ZM43.91 55.2C42.4636 55.2026 41.0774 55.7791 40.0556 56.8027C39.0338 57.8264 38.46 59.2136 38.46 60.66V332.09C38.46 333.536 39.0338 334.924 40.0556 335.947C41.0774 336.971 42.4636 337.547 43.91 337.55H237C238.447 337.547 239.834 336.971 240.858 335.948C241.881 334.924 242.457 333.537 242.46 332.09V60.66C242.457 59.2127 241.881 57.8255 240.858 56.8021C239.834 55.7787 238.447 55.2026 237 55.2H43.91Z" fill="#EBEBEB"/>
<path d="M453.31 337.8H260.21C258.696 337.797 257.246 337.195 256.175 336.125C255.105 335.054 254.503 333.604 254.5 332.09V60.66C254.516 59.1551 255.124 57.7171 256.193 56.6576C257.262 55.5981 258.705 55.0025 260.21 55H453.31C454.812 55.0052 456.252 55.6022 457.317 56.6617C458.382 57.7212 458.987 59.1578 459 60.66V332.09C459 333.601 458.401 335.05 457.335 336.121C456.268 337.191 454.821 337.795 453.31 337.8ZM260.21 55.2C258.763 55.2026 257.375 55.7787 256.352 56.8021C255.329 57.8255 254.753 59.2127 254.75 60.66V332.09C254.753 333.537 255.329 334.924 256.352 335.948C257.375 336.971 258.763 337.547 260.21 337.55H453.31C454.757 337.547 456.145 336.971 457.168 335.948C458.191 334.924 458.767 333.537 458.77 332.09V60.66C458.767 59.2127 458.191 57.8255 457.168 56.8021C456.145 55.7787 454.757 55.2026 453.31 55.2H260.21Z" fill="#EBEBEB"/>
<path d="M435.67 398.49H416.78V398.74H435.67V398.49Z" fill="#EBEBEB"/>
<path d="M322.52 396.75H293.05V397H322.52V396.75Z" fill="#EBEBEB"/>
<path d="M415.78 389.21H368.67V389.46H415.78V389.21Z" fill="#EBEBEB"/>
<path d="M63.43 390.89H52.46V391.14H63.43V390.89Z" fill="#EBEBEB"/>
<path d="M110.89 390.89H72.3301V391.14H110.89V390.89Z" fill="#EBEBEB"/>
<path d="M225.15 395.11H171V395.36H225.15V395.11Z" fill="#EBEBEB"/>
<path d="M381.86 166.99H404.89V162.21H381.86V166.99Z" fill="#E6E6E6"/>
<path d="M132.15 166.99L381.87 166.99V162.21L132.15 162.21V166.99Z" fill="#F0F0F0"/>
<path d="M273.79 82.71H334.83L325.21 162.22H264.17L273.79 82.71Z" fill="#F5F5F5"/>
<path d="M284.9 93.1299H321.2L314.11 151.79H277.8L284.9 93.1299Z" fill="#FAFAFA"/>
<path d="M185.31 86.3401H259.36L250.18 162.22H176.14L185.31 86.3401Z" fill="#F5F5F5"/>
<path d="M195.91 96.28H246.35L239.58 152.27H189.14L195.91 96.28Z" fill="#FAFAFA"/>
<path d="M313.63 109.93H364.65L358.33 162.22H307.3L313.63 109.93Z" fill="#F0F0F0"/>
<path d="M320.93 116.78H355.69L351.02 155.36H316.26L320.93 116.78Z" fill="#FAFAFA"/>
<path d="M435.35 230.72H403.81C398.255 230.801 392.883 232.725 388.54 236.189C384.196 239.653 381.125 244.462 379.81 249.86L371.48 284.66L354.36 284.6H354.3C350.343 284.6 346.51 285.98 343.462 288.503C340.413 291.026 338.34 294.533 337.6 298.42L335.32 310.33C333.596 310.593 331.989 311.361 330.702 312.537C329.415 313.714 328.506 315.246 328.09 316.94H340.18L326 382.4H329.62L343.84 316.94H353.78L339.51 382.4H343.13L357.35 316.94H397L411.22 382.4H414.84L400.62 316.94H410.56L424.78 382.4H428.4L414.18 316.94H412.69C418.246 316.874 423.622 314.958 427.969 311.495C432.315 308.033 435.383 303.221 436.69 297.82L448.69 247.82C449.229 245.79 449.29 243.662 448.87 241.604C448.449 239.546 447.558 237.614 446.266 235.957C444.974 234.301 443.316 232.967 441.423 232.058C439.529 231.149 437.45 230.691 435.35 230.72ZM368.35 297.58C367.483 301.151 365.454 304.333 362.581 306.625C359.708 308.917 356.155 310.188 352.48 310.24H339.84L341.96 299.24C342.512 296.373 344.045 293.788 346.294 291.927C348.544 290.066 351.37 289.045 354.29 289.04L370.35 289.09L368.35 297.58Z" fill="#E6E6E6"/>
<path d="M193.78 374.28H228.21L228.21 222.11H193.78L193.78 374.28Z" fill="#F0F0F0"/>
<path d="M70.0499 382.4H221.61V374.28H70.0499V382.4Z" fill="#F0F0F0"/>
<path d="M193.79 222.11H63.4302V374.28H193.79V222.11Z" fill="#F5F5F5"/>
<path d="M180.26 237.88H76.9702V303.97H180.26V237.88Z" fill="#F0F0F0"/>
<path d="M180.26 316.5H76.9702V358.51H180.26V316.5Z" fill="#F0F0F0"/>
<path d="M101.8 240.5H155.42C156.845 240.5 158 239.345 158 237.92V237.32C158 235.895 156.845 234.74 155.42 234.74H101.8C100.375 234.74 99.22 235.895 99.22 237.32V237.92C99.22 239.345 100.375 240.5 101.8 240.5Z" fill="#F5F5F5"/>
<path d="M101.8 319.39H155.42C156.845 319.39 158 318.235 158 316.81V316.21C158 314.785 156.845 313.63 155.42 313.63H101.8C100.375 313.63 99.22 314.785 99.22 316.21V316.81C99.22 318.235 100.375 319.39 101.8 319.39Z" fill="#F5F5F5"/>
<path d="M329.26 230.72H297.72C292.165 230.801 286.794 232.725 282.45 236.189C278.106 239.654 275.035 244.462 273.72 249.86L265.39 284.66L248.27 284.6C244.311 284.598 240.476 285.977 237.426 288.5C234.375 291.023 232.301 294.531 231.56 298.42L229.28 310.33C227.557 310.594 225.95 311.363 224.663 312.539C223.376 313.716 222.467 315.247 222.05 316.94H234.15L219.87 382.4H223.48L237.7 316.94H247.7L233.43 382.4H237L251.22 316.94H290.88L305.1 382.4H308.71L294.49 316.94H304.49L318.7 382.4H322.31L308.09 316.94H306.6C312.157 316.874 317.532 314.958 321.879 311.495C326.225 308.033 329.294 303.221 330.6 297.82L342.6 247.82C343.137 245.79 343.197 243.663 342.776 241.606C342.354 239.549 341.463 237.617 340.171 235.961C338.88 234.306 337.223 232.971 335.33 232.062C333.437 231.153 331.36 230.694 329.26 230.72ZM262.26 297.58C261.39 301.151 259.358 304.333 256.484 306.624C253.609 308.915 250.056 310.187 246.38 310.24H233.76L235.88 299.24C236.431 296.372 237.962 293.786 240.212 291.925C242.462 290.063 245.29 289.043 248.21 289.04L264.28 289.09L262.26 297.58Z" fill="#E6E6E6"/>
<path d="M250 427.56C357.082 427.56 443.89 422.492 443.89 416.24C443.89 409.988 357.082 404.92 250 404.92C142.917 404.92 56.1099 409.988 56.1099 416.24C56.1099 422.492 142.917 427.56 250 427.56Z" fill="#F5F5F5"/>
<path d="M409.947 239.352L409.001 239.443L410.231 252.244L411.177 252.153L409.947 239.352Z" fill="#ED4724"/>
<path d="M411.625 256.608L410.68 256.699L411.176 261.865L412.122 261.775L411.625 256.608Z" fill="#ED4724"/>
<path d="M183.355 367.482L416.779 345.047L403.423 206.087L169.999 228.522L183.355 367.482Z" fill="#ED4724"/>
<path opacity="0.1" d="M183.355 367.482L416.779 345.047L403.423 206.087L169.999 228.522L183.355 367.482Z" fill="black"/>
<path opacity="0.1" d="M294 293.1L170 228.52L403.42 206.08L294 293.1Z" fill="#263238"/>
<path d="M265.75 152.38L170 228.52L403.42 206.08L294.92 149.58C290.308 147.177 285.097 146.162 279.92 146.659C274.743 147.156 269.821 149.143 265.75 152.38Z" fill="#ED4724"/>
<path opacity="0.2" d="M394.75 206.92L291.66 153.23C288.182 151.416 284.252 150.65 280.347 151.025C276.443 151.399 272.73 152.898 269.66 155.34L178.66 227.68L394.75 206.92Z" fill="#263238"/>
<path d="M351.64 205.21L383.23 213.65L383.99 221.53L294 293.1L192.02 239.99L190.5 224.23L351.64 205.21Z" fill="white"/>
<path d="M351.64 205.21L357.61 221.75L383.23 213.65" fill="#E0E0E0"/>
<path d="M351.64 205.21L354.71 218.85L383.23 213.65" fill="#F0F0F0"/>
<path d="M312.65 278.24L416.78 345.05L183.36 367.48L272.85 282.06C278.097 277.055 284.872 273.958 292.09 273.265C299.307 272.572 306.548 274.324 312.65 278.24Z" fill="#ED4724"/>
</svg>
